<svg width="148" height="54" viewBox="0 0 148 54" fill="none" xmlns="http://www.w3.org/2000/svg">
<path d="M37.2426 43.3806C37.5468 43.3806 37.775 43.5327 37.9271 43.8369C38.1096 44.1715 38.2009 44.5974 38.2009 45.1145C38.2009 46.088 37.9423 47.0463 37.4251 47.9893C36.3908 49.8754 35.0219 51.3204 33.3183 52.3242C31.6452 53.3585 29.9264 53.8757 28.1621 53.8757C26.3672 53.8757 24.8614 53.5867 23.6446 53.0087C22.4278 52.4611 21.3935 51.6246 20.5417 50.499C19.6899 49.4039 18.8686 47.9437 18.0776 46.1184C17.2563 44.2323 16.5718 42.8178 16.0242 41.8747C15.5071 40.9621 14.9595 40.2929 14.3815 39.867C13.8035 39.4411 13.0582 39.1369 12.1456 38.9544C8.7689 38.2851 6.04626 36.612 3.97765 33.935C1.93947 31.2579 0.92038 27.8052 0.92038 23.5767C0.92038 18.9528 1.75695 14.8764 3.43008 11.3477C5.13364 7.81886 7.43039 5.09621 10.3204 3.17971C13.2407 1.26321 16.4653 0.304961 19.9941 0.304961C22.7016 0.304961 25.1352 0.913374 27.2951 2.1302C29.4853 3.34703 31.2193 5.14184 32.497 7.51465C33.7747 9.85704 34.4135 12.6709 34.4135 15.9564C34.4135 19.7894 33.8355 23.2421 32.6795 26.3146C31.5235 29.3871 29.9264 31.9424 27.8883 33.9806C25.8501 36.0188 23.5077 37.4638 20.8611 38.3155C21.6216 38.7414 22.2757 39.365 22.8232 40.1864C23.4012 41.0078 24.0096 42.1942 24.6485 43.7456C25.3481 45.4492 26.0935 46.666 26.8844 47.3961C27.7057 48.1262 28.7096 48.4912 29.896 48.4912C30.8999 48.4912 31.8734 48.1414 32.8164 47.4417C33.7594 46.7725 34.8242 45.6621 36.0106 44.1107C36.3756 43.6239 36.7863 43.3806 37.2426 43.3806ZM15.7961 33.8437C18.1689 33.8437 20.2527 33.1136 22.0475 31.6534C23.8727 30.1932 25.2721 28.1703 26.2456 25.5845C27.219 22.9683 27.7057 20.0175 27.7057 16.7321C27.7057 13.112 26.9452 10.3742 25.4242 8.51853C23.9032 6.63245 21.941 5.68941 19.5378 5.68941C17.2258 5.68941 15.1572 6.43472 13.332 7.92533C11.5372 9.38552 10.1378 11.4085 9.13395 13.9942C8.13007 16.58 7.62813 19.5156 7.62813 22.801C7.62813 26.4211 8.38864 29.1741 9.90968 31.0602C11.4307 32.9159 13.3928 33.8437 15.7961 33.8437ZM41.6524 39.2282C40.2835 39.2282 39.1579 38.6045 38.2757 37.3573C37.4239 36.0796 36.9981 34.4977 36.9981 32.6117C36.9981 30.3301 37.1502 28.2463 37.4544 26.3602C37.7586 24.4437 38.2605 22.4208 38.9602 20.2913C39.2644 19.3787 39.6903 18.7247 40.2379 18.3292C40.7854 17.9337 41.6524 17.736 42.8388 17.736C43.5081 17.736 43.9644 17.8425 44.2077 18.0554C44.4815 18.2683 44.6184 18.5878 44.6184 19.0136C44.6184 19.257 44.4511 20.0784 44.1165 21.4777C43.8123 22.6033 43.5689 23.6224 43.3864 24.535C42.778 27.7292 42.4738 29.8586 42.4738 30.9233C42.4738 31.5622 42.5498 32.0185 42.7019 32.2923C42.854 32.5356 43.0974 32.6573 43.432 32.6573C43.8883 32.6573 44.4511 32.201 45.1204 31.2884C45.82 30.3758 46.5501 28.9916 47.3106 27.136C48.1016 25.2803 48.8621 22.9987 49.5922 20.2913C49.8356 19.3787 50.2006 18.7247 50.6873 18.3292C51.2045 17.9337 51.965 17.736 52.9689 17.736C53.6686 17.736 54.1553 17.8272 54.4291 18.0098C54.7029 18.1619 54.8398 18.4661 54.8398 18.9224C54.8398 19.6829 54.4595 21.7667 53.699 25.1738C52.8472 29.0677 52.4213 31.4709 52.4213 32.3835C52.4213 32.9615 52.543 33.4178 52.7864 33.7524C53.0297 34.0566 53.3491 34.2088 53.7446 34.2088C54.353 34.2088 55.0679 33.8437 55.8893 33.1136C56.741 32.3531 57.8666 31.1363 59.266 29.4631C59.631 29.0372 60.0417 28.8243 60.498 28.8243C60.8935 28.8243 61.1977 29.0068 61.4106 29.3719C61.654 29.7369 61.7757 30.2389 61.7757 30.8777C61.7757 32.0945 61.4867 33.0376 60.9087 33.7068C59.6006 35.3191 58.186 36.6424 56.665 37.6767C55.1744 38.711 53.4708 39.2282 51.5543 39.2282C50.0941 39.2282 49.0142 38.6654 48.3145 37.5398C47.6453 36.4142 47.3106 34.8324 47.3106 32.7942C46.7935 34.8628 46.0178 36.4599 44.9835 37.5854C43.9492 38.6806 42.8388 39.2282 41.6524 39.2282ZM64.0533 14.7243C62.7756 14.7243 61.8174 14.4353 61.1785 13.8574C60.5397 13.2489 60.2203 12.4124 60.2203 11.3477C60.2203 10.2829 60.631 9.40073 61.4523 8.70105C62.3041 7.97096 63.3536 7.60591 64.6009 7.60591C65.7264 7.60591 66.639 7.8797 67.3387 8.42727C68.0384 8.97484 68.3882 9.75057 68.3882 10.7544C68.3882 11.9713 67.9928 12.9447 67.2018 13.6748C66.4109 14.3745 65.3614 14.7243 64.0533 14.7243ZM63.6882 39.2282C61.7109 39.2282 60.2659 38.5285 59.3533 37.1291C58.4711 35.7298 58.03 33.8741 58.03 31.5622C58.03 30.1932 58.1973 28.444 58.5319 26.3146C58.897 24.1547 59.3533 22.147 59.9009 20.2913C60.1747 19.3179 60.5397 18.6486 60.996 18.2836C61.4523 17.9185 62.1824 17.736 63.1863 17.736C64.7377 17.736 65.5135 18.2531 65.5135 19.2874C65.5135 20.0479 65.2245 21.8123 64.6465 24.5806C63.9164 27.9269 63.5513 30.1932 63.5513 31.3796C63.5513 32.2923 63.673 32.9919 63.9164 33.4787C64.1598 33.9654 64.5704 34.2088 65.1484 34.2088C65.696 34.2088 66.3805 33.8285 67.2018 33.068C68.0232 32.3075 69.1183 31.1058 70.4872 29.4631C70.8523 29.0372 71.263 28.8243 71.7193 28.8243C72.1147 28.8243 72.419 29.0068 72.6319 29.3719C72.8753 29.7369 72.9969 30.2389 72.9969 30.8777C72.9969 32.0945 72.7079 33.0376 72.13 33.7068C69.1183 37.3877 66.3044 39.2282 63.6882 39.2282ZM91.1837 28.8243C91.5792 28.8243 91.8834 29.0068 92.0963 29.3719C92.3397 29.7369 92.4614 30.2389 92.4614 30.8777C92.4614 32.0033 92.1724 32.9463 91.5944 33.7068C90.1646 35.5625 88.385 37.0227 86.2556 38.0874C84.1566 39.1521 81.7838 39.6845 79.1372 39.6845C77.0686 39.6845 75.2737 39.3803 73.7527 38.7718C72.2317 38.133 71.0605 37.2812 70.2391 36.2165C69.4482 35.1214 69.0527 33.9045 69.0527 32.566C69.0527 30.5583 69.8589 28.7787 71.4712 27.2272C73.0835 25.6758 75.3954 24.1852 78.4071 22.7554L70.9236 22.9379C70.2543 22.9683 69.7372 22.7402 69.3721 22.2534C69.0375 21.7363 68.8702 21.1279 68.8702 20.4282C68.8702 19.6981 69.0375 19.0593 69.3721 18.5117C69.7372 17.9337 70.2239 17.6447 70.8323 17.6447C72.2317 17.6447 74.1025 17.7512 76.4449 17.9641C76.9317 17.9946 77.8139 18.0554 79.0915 18.1467C80.3996 18.2379 81.4948 18.2836 82.377 18.2836C82.6812 18.2836 83.2592 18.1619 84.1109 17.9185C84.263 17.8881 84.552 17.812 84.9779 17.6904C85.4342 17.5687 85.8145 17.5078 86.1187 17.5078C86.6054 17.5078 87.0009 17.7208 87.3051 18.1467C87.6397 18.5725 87.807 19.2266 87.807 20.1088C87.807 21.0822 87.5789 21.8428 87.1226 22.3903C86.6663 22.9379 85.9514 23.4246 84.9779 23.8505C82.2096 25.0369 79.9129 26.3146 78.0876 27.6835C76.2624 29.022 75.3498 30.3605 75.3498 31.699C75.3498 32.5508 75.7453 33.2505 76.5362 33.7981C77.3271 34.3456 78.4983 34.6194 80.0498 34.6194C81.7533 34.6194 83.4721 34.1935 85.2061 33.3418C86.9705 32.49 88.5523 31.1971 89.9517 29.4631C90.3167 29.0372 90.7274 28.8243 91.1837 28.8243ZM111.504 28.8243C111.899 28.8243 112.203 29.0068 112.416 29.3719C112.66 29.7369 112.781 30.2389 112.781 30.8777C112.781 32.0033 112.492 32.9463 111.914 33.7068C110.485 35.5625 108.705 37.0227 106.576 38.0874C104.477 39.1521 102.104 39.6845 99.4572 39.6845C97.3886 39.6845 95.5938 39.3803 94.0727 38.7718C92.5517 38.133 91.3805 37.2812 90.5592 36.2165C89.7682 35.1214 89.3728 33.9045 89.3728 32.566C89.3728 30.5583 90.1789 28.7787 91.7912 27.2272C93.4035 25.6758 95.7155 24.1852 98.7271 22.7554L91.2436 22.9379C90.5744 22.9683 90.0572 22.7402 89.6922 22.2534C89.3575 21.7363 89.1902 21.1279 89.1902 20.4282C89.1902 19.6981 89.3575 19.0593 89.6922 18.5117C90.0572 17.9337 90.5439 17.6447 91.1524 17.6447C92.5517 17.6447 94.4226 17.7512 96.765 17.9641C97.2517 17.9946 98.1339 18.0554 99.4116 18.1467C100.72 18.2379 101.815 18.2836 102.697 18.2836C103.001 18.2836 103.579 18.1619 104.431 17.9185C104.583 17.8881 104.872 17.812 105.298 17.6904C105.754 17.5687 106.135 17.5078 106.439 17.5078C106.925 17.5078 107.321 17.7208 107.625 18.1467C107.96 18.5725 108.127 19.2266 108.127 20.1088C108.127 21.0822 107.899 21.8428 107.443 22.3903C106.986 22.9379 106.271 23.4246 105.298 23.8505C102.53 25.0369 100.233 26.3146 98.4077 27.6835C96.5824 29.022 95.6698 30.3605 95.6698 31.699C95.6698 32.5508 96.0653 33.2505 96.8562 33.7981C97.6472 34.3456 98.8184 34.6194 100.37 34.6194C102.073 34.6194 103.792 34.1935 105.526 33.3418C107.291 32.49 108.872 31.1971 110.272 29.4631C110.637 29.0372 111.047 28.8243 111.504 28.8243ZM129.405 28.8243C129.801 28.8243 130.105 29.0068 130.318 29.3719C130.561 29.7369 130.683 30.2389 130.683 30.8777C130.683 32.0945 130.394 33.0376 129.816 33.7068C128.69 35.0757 127.093 36.3382 125.025 37.4942C122.987 38.6502 120.796 39.2282 118.454 39.2282C115.26 39.2282 112.78 38.3612 111.016 36.6272C109.252 34.8932 108.369 32.5204 108.369 29.5088C108.369 27.4097 108.811 25.4628 109.693 23.668C110.575 21.8428 111.792 20.3978 113.343 19.3331C114.925 18.2683 116.705 17.736 118.682 17.736C120.446 17.736 121.861 18.2683 122.926 19.3331C123.99 20.3674 124.523 21.7819 124.523 23.5767C124.523 25.6758 123.762 27.4858 122.241 29.0068C120.751 30.4974 118.211 31.6838 114.621 32.566C115.381 33.9654 116.826 34.6651 118.956 34.6651C120.325 34.6651 121.876 34.1935 123.61 33.2505C125.375 32.277 126.896 31.0146 128.173 29.4631C128.538 29.0372 128.949 28.8243 129.405 28.8243ZM117.906 22.2078C116.781 22.2078 115.823 22.8619 115.032 24.1699C114.271 25.478 113.891 27.0599 113.891 28.9156V29.0068C115.686 28.5809 117.1 27.9421 118.134 27.0903C119.169 26.2385 119.686 25.2499 119.686 24.1243C119.686 23.5463 119.519 23.09 119.184 22.7554C118.88 22.3903 118.454 22.2078 117.906 22.2078ZM145.403 23.9874C146.072 23.9874 146.635 24.2308 147.091 24.7175C147.578 25.1738 147.821 25.7518 147.821 26.4515C147.821 26.847 147.73 27.2728 147.547 27.7292C147.06 28.8547 146.376 29.7978 145.494 30.5583C144.612 31.3188 143.638 31.699 142.573 31.699C141.722 31.699 140.992 31.3948 140.383 30.7864C139.805 30.178 139.516 29.3567 139.516 28.3224C139.516 27.7444 139.547 27.1207 139.607 26.4515C139.668 25.9648 139.699 25.6301 139.699 25.4476C139.699 25.2042 139.638 25.0217 139.516 24.9C139.425 24.7784 139.303 24.7175 139.151 24.7175C138.725 24.7175 138.147 25.2347 137.417 26.269C136.687 27.2728 135.957 28.6114 135.227 30.2845C134.497 31.9576 133.904 33.722 133.447 35.5777C133.113 37.0379 132.732 38.0113 132.306 38.4981C131.881 38.9848 131.181 39.2282 130.207 39.2282C129.051 39.2282 128.23 38.6197 127.743 37.4029C127.287 36.1861 127.059 34.2392 127.059 31.5622C127.059 27.6075 127.622 23.8505 128.747 20.2913C129.021 19.4091 129.462 18.7703 130.071 18.3748C130.709 17.9489 131.592 17.736 132.717 17.736C133.326 17.736 133.751 17.812 133.995 17.9641C134.238 18.1162 134.36 18.4052 134.36 18.8311C134.36 19.3179 134.132 20.413 133.675 22.1166C133.371 23.3334 133.128 24.3981 132.945 25.3107C132.763 26.2233 132.611 27.3489 132.489 28.6874C133.493 26.0712 134.618 23.9418 135.866 22.2991C137.113 20.6564 138.33 19.4852 139.516 18.7855C140.703 18.0858 141.782 17.736 142.756 17.736C143.638 17.736 144.307 17.9946 144.764 18.5117C145.25 18.9984 145.494 19.7285 145.494 20.702C145.494 21.28 145.327 22.3751 144.992 23.9874H145.403Z" fill="#34489F"/>
</svg>
