<svg width="148" height="54" viewBox="0 0 148 54" fill="none" xmlns="http://www.w3.org/2000/svg">
<path d="M37.2426 43.202C37.5468 43.202 37.775 43.3541 37.9271 43.6583C38.1096 43.9929 38.2009 44.4188 38.2009 44.936C38.2009 45.9094 37.9423 46.8677 37.4251 47.8107C36.3908 49.6968 35.0219 51.1418 33.3183 52.1456C31.6452 53.1799 29.9264 53.6971 28.1621 53.6971C26.3672 53.6971 24.8614 53.4081 23.6446 52.8301C22.4278 52.2825 21.3935 51.446 20.5417 50.3204C19.6899 49.2253 18.8686 47.7651 18.0776 45.9398C17.2563 44.0538 16.5718 42.6392 16.0242 41.6962C15.5071 40.7835 14.9595 40.1143 14.3815 39.6884C13.8035 39.2625 13.0582 38.9583 12.1456 38.7758C8.7689 38.1065 6.04626 36.4334 3.97765 33.7564C1.93947 31.0794 0.92038 27.6266 0.92038 23.3982C0.92038 18.7742 1.75695 14.6979 3.43008 11.1691C5.13364 7.64027 7.43039 4.91762 10.3204 3.00112C13.2407 1.08462 16.4653 0.126372 19.9941 0.126372C22.7016 0.126372 25.1352 0.734785 27.2951 1.95161C29.4853 3.16844 31.2193 4.96325 32.497 7.33606C33.7747 9.67845 34.4135 12.4924 34.4135 15.7778C34.4135 19.6108 33.8355 23.0635 32.6795 26.136C31.5235 29.2085 29.9264 31.7638 27.8883 33.802C25.8501 35.8402 23.5077 37.2852 20.8611 38.1369C21.6216 38.5628 22.2757 39.1865 22.8232 40.0078C23.4012 40.8292 24.0096 42.0156 24.6485 43.567C25.3481 45.2706 26.0935 46.4874 26.8844 47.2175C27.7057 47.9476 28.7096 48.3126 29.896 48.3126C30.8999 48.3126 31.8734 47.9628 32.8164 47.2631C33.7594 46.5939 34.8242 45.4835 36.0106 43.9321C36.3756 43.4453 36.7863 43.202 37.2426 43.202ZM15.7961 33.6651C18.1689 33.6651 20.2527 32.935 22.0475 31.4748C23.8727 30.0146 25.2721 27.9917 26.2456 25.4059C27.219 22.7897 27.7057 19.8389 27.7057 16.5535C27.7057 12.9335 26.9452 10.1956 25.4242 8.33994C23.9032 6.45386 21.941 5.51082 19.5378 5.51082C17.2258 5.51082 15.1572 6.25613 13.332 7.74674C11.5372 9.20693 10.1378 11.2299 9.13395 13.8157C8.13007 16.4014 7.62813 19.337 7.62813 22.6224C7.62813 26.2425 8.38864 28.9955 9.90968 30.8816C11.4307 32.7373 13.3928 33.6651 15.7961 33.6651ZM41.6524 39.0496C40.2835 39.0496 39.1579 38.4259 38.2757 37.1787C37.4239 35.901 36.9981 34.3192 36.9981 32.4331C36.9981 30.1515 37.1502 28.0677 37.4544 26.1816C37.7586 24.2651 38.2605 22.2422 38.9602 20.1127C39.2644 19.2001 39.6903 18.5461 40.2379 18.1506C40.7854 17.7551 41.6524 17.5574 42.8388 17.5574C43.5081 17.5574 43.9644 17.6639 44.2077 17.8768C44.4815 18.0898 44.6184 18.4092 44.6184 18.8351C44.6184 19.0784 44.4511 19.8998 44.1165 21.2991C43.8123 22.4247 43.5689 23.4438 43.3864 24.3564C42.778 27.5506 42.4738 29.68 42.4738 30.7447C42.4738 31.3836 42.5498 31.8399 42.7019 32.1137C42.854 32.357 43.0974 32.4787 43.432 32.4787C43.8883 32.4787 44.4511 32.0224 45.1204 31.1098C45.82 30.1972 46.5501 28.813 47.3106 26.9574C48.1016 25.1017 48.8621 22.8202 49.5922 20.1127C49.8356 19.2001 50.2006 18.5461 50.6873 18.1506C51.2045 17.7551 51.965 17.5574 52.9689 17.5574C53.6686 17.5574 54.1553 17.6487 54.4291 17.8312C54.7029 17.9833 54.8398 18.2875 54.8398 18.7438C54.8398 19.5043 54.4595 21.5881 53.699 24.9952C52.8472 28.8891 52.4213 31.2923 52.4213 32.2049C52.4213 32.7829 52.543 33.2392 52.7864 33.5739C53.0297 33.8781 53.3491 34.0302 53.7446 34.0302C54.353 34.0302 55.0679 33.6651 55.8893 32.935C56.741 32.1745 57.8666 30.9577 59.266 29.2845C59.631 28.8587 60.0417 28.6457 60.498 28.6457C60.8935 28.6457 61.1977 28.8282 61.4106 29.1933C61.654 29.5583 61.7757 30.0603 61.7757 30.6991C61.7757 31.9159 61.4867 32.859 60.9087 33.5282C59.6006 35.1405 58.186 36.4638 56.665 37.4981C55.1744 38.5324 53.4708 39.0496 51.5543 39.0496C50.0941 39.0496 49.0142 38.4868 48.3145 37.3612C47.6453 36.2357 47.3106 34.6538 47.3106 32.6156C46.7935 34.6842 46.0178 36.2813 44.9835 37.4069C43.9492 38.502 42.8388 39.0496 41.6524 39.0496ZM64.0533 14.5458C62.7756 14.5458 61.8174 14.2568 61.1785 13.6788C60.5397 13.0703 60.2203 12.2338 60.2203 11.1691C60.2203 10.1043 60.631 9.22214 61.4523 8.52247C62.3041 7.79237 63.3536 7.42732 64.6009 7.42732C65.7264 7.42732 66.639 7.70111 67.3387 8.24868C68.0384 8.79625 68.3882 9.57198 68.3882 10.5759C68.3882 11.7927 67.9928 12.7661 67.2018 13.4962C66.4109 14.1959 65.3614 14.5458 64.0533 14.5458ZM63.6882 39.0496C61.7109 39.0496 60.2659 38.3499 59.3533 36.9505C58.4711 35.5512 58.03 33.6955 58.03 31.3836C58.03 30.0146 58.1973 28.2655 58.5319 26.136C58.897 23.9761 59.3533 21.9684 59.9009 20.1127C60.1747 19.1393 60.5397 18.47 60.996 18.105C61.4523 17.7399 62.1824 17.5574 63.1863 17.5574C64.7377 17.5574 65.5135 18.0745 65.5135 19.1088C65.5135 19.8694 65.2245 21.6338 64.6465 24.402C63.9164 27.7483 63.5513 30.0146 63.5513 31.201C63.5513 32.1137 63.673 32.8133 63.9164 33.3001C64.1598 33.7868 64.5704 34.0302 65.1484 34.0302C65.696 34.0302 66.3805 33.6499 67.2018 32.8894C68.0232 32.1289 69.1183 30.9273 70.4872 29.2845C70.8523 28.8587 71.263 28.6457 71.7193 28.6457C72.1147 28.6457 72.419 28.8282 72.6319 29.1933C72.8753 29.5583 72.9969 30.0603 72.9969 30.6991C72.9969 31.9159 72.7079 32.859 72.13 33.5282C69.1183 37.2091 66.3044 39.0496 63.6882 39.0496ZM91.1837 28.6457C91.5792 28.6457 91.8834 28.8282 92.0963 29.1933C92.3397 29.5583 92.4614 30.0603 92.4614 30.6991C92.4614 31.8247 92.1724 32.7677 91.5944 33.5282C90.1646 35.3839 88.385 36.8441 86.2556 37.9088C84.1566 38.9735 81.7838 39.5059 79.1372 39.5059C77.0686 39.5059 75.2737 39.2017 73.7527 38.5933C72.2317 37.9544 71.0605 37.1026 70.2391 36.0379C69.4482 34.9428 69.0527 33.726 69.0527 32.3874C69.0527 30.3797 69.8589 28.6001 71.4712 27.0486C73.0835 25.4972 75.3954 24.0066 78.4071 22.5768L70.9236 22.7593C70.2543 22.7897 69.7372 22.5616 69.3721 22.0749C69.0375 21.5577 68.8702 20.9493 68.8702 20.2496C68.8702 19.5195 69.0375 18.8807 69.3721 18.3331C69.7372 17.7551 70.2239 17.4661 70.8323 17.4661C72.2317 17.4661 74.1025 17.5726 76.4449 17.7855C76.9317 17.816 77.8139 17.8768 79.0915 17.9681C80.3996 18.0593 81.4948 18.105 82.377 18.105C82.6812 18.105 83.2592 17.9833 84.1109 17.7399C84.263 17.7095 84.552 17.6334 84.9779 17.5118C85.4342 17.3901 85.8145 17.3292 86.1187 17.3292C86.6054 17.3292 87.0009 17.5422 87.3051 17.9681C87.6397 18.394 87.807 19.048 87.807 19.9302C87.807 20.9037 87.5789 21.6642 87.1226 22.2117C86.6663 22.7593 85.9514 23.246 84.9779 23.6719C82.2096 24.8583 79.9129 26.136 78.0876 27.5049C76.2624 28.8434 75.3498 30.182 75.3498 31.5205C75.3498 32.3722 75.7453 33.0719 76.5362 33.6195C77.3271 34.1671 78.4983 34.4408 80.0498 34.4408C81.7533 34.4408 83.4721 34.015 85.2061 33.1632C86.9705 32.3114 88.5523 31.0185 89.9517 29.2845C90.3167 28.8587 90.7274 28.6457 91.1837 28.6457ZM111.504 28.6457C111.899 28.6457 112.203 28.8282 112.416 29.1933C112.66 29.5583 112.781 30.0603 112.781 30.6991C112.781 31.8247 112.492 32.7677 111.914 33.5282C110.485 35.3839 108.705 36.8441 106.576 37.9088C104.477 38.9735 102.104 39.5059 99.4572 39.5059C97.3886 39.5059 95.5938 39.2017 94.0727 38.5933C92.5517 37.9544 91.3805 37.1026 90.5592 36.0379C89.7682 34.9428 89.3728 33.726 89.3728 32.3874C89.3728 30.3797 90.1789 28.6001 91.7912 27.0486C93.4035 25.4972 95.7155 24.0066 98.7271 22.5768L91.2436 22.7593C90.5744 22.7897 90.0572 22.5616 89.6922 22.0749C89.3575 21.5577 89.1902 20.9493 89.1902 20.2496C89.1902 19.5195 89.3575 18.8807 89.6922 18.3331C90.0572 17.7551 90.5439 17.4661 91.1524 17.4661C92.5517 17.4661 94.4226 17.5726 96.765 17.7855C97.2517 17.816 98.1339 17.8768 99.4116 17.9681C100.72 18.0593 101.815 18.105 102.697 18.105C103.001 18.105 103.579 17.9833 104.431 17.7399C104.583 17.7095 104.872 17.6334 105.298 17.5118C105.754 17.3901 106.135 17.3292 106.439 17.3292C106.925 17.3292 107.321 17.5422 107.625 17.9681C107.96 18.394 108.127 19.048 108.127 19.9302C108.127 20.9037 107.899 21.6642 107.443 22.2117C106.986 22.7593 106.271 23.246 105.298 23.6719C102.53 24.8583 100.233 26.136 98.4077 27.5049C96.5824 28.8434 95.6698 30.182 95.6698 31.5205C95.6698 32.3722 96.0653 33.0719 96.8562 33.6195C97.6472 34.1671 98.8184 34.4408 100.37 34.4408C102.073 34.4408 103.792 34.015 105.526 33.1632C107.291 32.3114 108.872 31.0185 110.272 29.2845C110.637 28.8587 111.047 28.6457 111.504 28.6457ZM129.405 28.6457C129.801 28.6457 130.105 28.8282 130.318 29.1933C130.561 29.5583 130.683 30.0603 130.683 30.6991C130.683 31.9159 130.394 32.859 129.816 33.5282C128.69 34.8972 127.093 36.1596 125.025 37.3156C122.987 38.4716 120.796 39.0496 118.454 39.0496C115.26 39.0496 112.78 38.1826 111.016 36.4486C109.252 34.7146 108.369 32.3418 108.369 29.3302C108.369 27.2312 108.811 25.2842 109.693 23.4894C110.575 21.6642 111.792 20.2192 113.343 19.1545C114.925 18.0898 116.705 17.5574 118.682 17.5574C120.446 17.5574 121.861 18.0898 122.926 19.1545C123.99 20.1888 124.523 21.6033 124.523 23.3982C124.523 25.4972 123.762 27.3072 122.241 28.8282C120.751 30.3188 118.211 31.5053 114.621 32.3874C115.381 33.7868 116.826 34.4865 118.956 34.4865C120.325 34.4865 121.876 34.015 123.61 33.0719C125.375 32.0985 126.896 30.836 128.173 29.2845C128.538 28.8587 128.949 28.6457 129.405 28.6457ZM117.906 22.0292C116.781 22.0292 115.823 22.6833 115.032 23.9914C114.271 25.2994 113.891 26.8813 113.891 28.737V28.8282C115.686 28.4023 117.1 27.7635 118.134 26.9117C119.169 26.06 119.686 25.0713 119.686 23.9457C119.686 23.3677 119.519 22.9114 119.184 22.5768C118.88 22.2117 118.454 22.0292 117.906 22.0292ZM145.403 23.8088C146.072 23.8088 146.635 24.0522 147.091 24.5389C147.578 24.9952 147.821 25.5732 147.821 26.2729C147.821 26.6684 147.73 27.0943 147.547 27.5506C147.06 28.6761 146.376 29.6192 145.494 30.3797C144.612 31.1402 143.638 31.5205 142.573 31.5205C141.722 31.5205 140.992 31.2163 140.383 30.6078C139.805 29.9994 139.516 29.1781 139.516 28.1438C139.516 27.5658 139.547 26.9422 139.607 26.2729C139.668 25.7862 139.699 25.4515 139.699 25.269C139.699 25.0257 139.638 24.8431 139.516 24.7215C139.425 24.5998 139.303 24.5389 139.151 24.5389C138.725 24.5389 138.147 25.0561 137.417 26.0904C136.687 27.0943 135.957 28.4328 135.227 30.1059C134.497 31.779 133.904 33.5434 133.447 35.3991C133.113 36.8593 132.732 37.8327 132.306 38.3195C131.881 38.8062 131.181 39.0496 130.207 39.0496C129.051 39.0496 128.23 38.4412 127.743 37.2243C127.287 36.0075 127.059 34.0606 127.059 31.3836C127.059 27.4289 127.622 23.6719 128.747 20.1127C129.021 19.2305 129.462 18.5917 130.071 18.1962C130.709 17.7703 131.592 17.5574 132.717 17.5574C133.326 17.5574 133.751 17.6334 133.995 17.7855C134.238 17.9376 134.36 18.2266 134.36 18.6525C134.36 19.1393 134.132 20.2344 133.675 21.938C133.371 23.1548 133.128 24.2195 132.945 25.1321C132.763 26.0447 132.611 27.1703 132.489 28.5088C133.493 25.8926 134.618 23.7632 135.866 22.1205C137.113 20.4778 138.33 19.3066 139.516 18.6069C140.703 17.9072 141.782 17.5574 142.756 17.5574C143.638 17.5574 144.307 17.816 144.764 18.3331C145.25 18.8198 145.494 19.5499 145.494 20.5234C145.494 21.1014 145.327 22.1965 144.992 23.8088H145.403Z" fill="white"/>
</svg>
